<svg width="35" height="28" viewBox="0 0 35 28" fill="none" xmlns="http://www.w3.org/2000/svg">
<path d="M34.145 4.0808C32.9202 4.60914 31.5873 4.98939 30.2144 5.13749C31.6398 4.29068 32.7072 2.95287 33.2164 1.37505C31.8788 2.17072 30.4136 2.72866 28.8855 3.02412C28.2469 2.34138 27.4745 1.79748 26.6165 1.42631C25.7585 1.05514 24.8332 0.864651 23.8983 0.866716C20.1159 0.866716 17.0739 3.93271 17.0739 7.69515C17.0739 8.22349 17.1379 8.75183 17.242 9.26016C11.5783 8.96397 6.52705 6.25821 3.16887 2.11553C2.55697 3.16067 2.23632 4.35068 2.24026 5.56176C2.24026 7.9313 3.44505 10.0207 5.28224 11.2495C4.19955 11.2068 3.14222 10.9092 2.19624 10.3809V10.4649C2.19624 13.7831 4.54176 16.5329 7.66779 17.1653C7.08084 17.3178 6.47704 17.3957 5.87062 17.3974C5.42633 17.3974 5.00606 17.3534 4.58178 17.2934C5.44634 19.9991 7.96398 21.9644 10.9619 22.0284C8.6164 23.8656 5.67849 24.9463 2.48843 24.9463C1.91605 24.9463 1.38771 24.9263 0.839355 24.8623C3.86532 26.8035 7.45565 27.9243 11.3222 27.9243C23.8743 27.9243 30.7428 17.5255 30.7428 8.49967C30.7428 8.20348 30.7428 7.90728 30.7227 7.61109C32.0516 6.63846 33.2164 5.43368 34.145 4.0808Z" fill="#2091F9"/>
</svg>
