<svg width="33" height="33" viewBox="0 0 33 33" fill="none" xmlns="http://www.w3.org/2000/svg">
<path d="M31.1981 0.385254H1.73902C1.03056 0.385254 0.458191 0.957625 0.458191 1.66609V31.1252C0.458191 31.8337 1.03056 32.406 1.73902 32.406H31.1981C31.9066 32.406 32.479 31.8337 32.479 31.1252V1.66609C32.479 0.957625 31.9066 0.385254 31.1981 0.385254ZM9.95635 27.671H5.20527V12.389H9.95635V27.671ZM7.58281 10.2997C7.03817 10.2997 6.50575 10.1382 6.05289 9.83559C5.60003 9.533 5.24707 9.10292 5.03865 8.59973C4.83022 8.09654 4.77568 7.54285 4.88194 7.00866C4.9882 6.47448 5.25047 5.9838 5.63559 5.59868C6.02072 5.21355 6.51139 4.95128 7.04558 4.84503C7.57976 4.73877 8.13345 4.7933 8.63664 5.00173C9.13983 5.21016 9.56991 5.56312 9.8725 6.01598C10.1751 6.46884 10.3366 7.00125 10.3366 7.5459C10.3326 9.06689 9.0998 10.2997 7.58281 10.2997ZM27.7439 27.671H22.9968V20.2381C22.9968 18.465 22.9648 16.1875 20.5272 16.1875C18.0576 16.1875 17.6774 18.1168 17.6774 20.1101V27.671H12.9343V12.389H17.4892V14.4784H17.5533C18.1857 13.2776 19.7347 12.0088 22.0482 12.0088C26.8593 12.0088 27.7439 15.1748 27.7439 19.2895V27.671Z" fill="#2091F9"/>
</svg>
