<svg width="33" height="33" viewBox="0 0 33 33" fill="none" xmlns="http://www.w3.org/2000/svg">
<path d="M31.2103 0.385254H1.75117C1.04271 0.385254 0.470337 0.957625 0.470337 1.66609V31.1252C0.470337 31.8337 1.04271 32.406 1.75117 32.406H31.2103C31.9187 32.406 32.4911 31.8337 32.4911 31.1252V1.66609C32.4911 0.957625 31.9187 0.385254 31.2103 0.385254ZM27.5119 9.73132H24.9542C22.9489 9.73132 22.5607 10.6839 22.5607 12.0848V15.1708H27.3478L26.7234 20.002H22.5607V32.406H17.5694V20.006H13.3947V15.1708H17.5694V11.6085C17.5694 7.47385 20.0951 5.22039 23.7855 5.22039C25.5546 5.22039 27.0716 5.35248 27.5159 5.41252V9.73132H27.5119Z" fill="#2091F9"/>
</svg>
