<svg width="33" height="34" viewBox="0 0 33 34" fill="none" xmlns="http://www.w3.org/2000/svg">
<path d="M30.7506 0.989609H1.29145C0.582991 0.989609 0.0106201 1.56198 0.0106201 2.27044V31.7296C0.0106201 32.438 0.582991 33.0104 1.29145 33.0104H30.7506C31.459 33.0104 32.0314 32.438 32.0314 31.7296V2.27044C32.0314 1.56198 31.459 0.989609 30.7506 0.989609ZM27.0522 10.3357H24.4945C22.4892 10.3357 22.101 11.2883 22.101 12.6892V15.7752H26.8881L26.2637 20.6063H22.101V33.0104H17.1097V20.6103H12.935V15.7752H17.1097V12.2129C17.1097 8.07821 19.6354 5.82475 23.3257 5.82475C25.0949 5.82475 26.6119 5.95683 27.0562 6.01687V10.3357H27.0522Z" fill="white"/>
</svg>
