<svg width="45" height="42" viewBox="0 0 45 42" fill="none" xmlns="http://www.w3.org/2000/svg">
<path d="M18.2498 41.65C22.4031 40.0167 21.4931 35.5134 19.3931 32.6667C17.3165 29.75 14.4465 27.7434 11.5531 25.8067C9.48872 24.5055 7.64548 22.8829 6.09313 21C5.43979 20.23 4.10979 18.8067 5.46313 18.5267C6.83979 18.2467 9.21979 19.6 10.4331 20.1134C12.5565 21 14.6565 22.0267 16.6165 23.24L18.9731 19.2734C15.3331 16.87 10.6665 14.7467 6.32646 14.1167C3.85313 13.7434 1.23979 14.2567 0.399793 16.94C-0.346873 19.25 0.843127 21.5834 2.19646 23.4034C5.39313 27.6734 10.3631 29.7267 14.0731 33.4134C14.8665 34.1834 15.8231 35.0934 16.2898 36.1667C16.7798 37.1934 16.6631 37.2634 15.5665 37.2634C12.6731 37.2634 9.05646 35 6.69979 33.5067L4.34313 37.4734C7.91313 39.6667 13.8865 43.0967 18.2498 41.65ZM44.1265 5.25004C44.6398 4.7367 44.6398 3.8967 44.1265 3.4067L41.0931 0.373369C40.8487 0.137831 40.5225 0.00622559 40.1831 0.00622559C39.8437 0.00622559 39.5175 0.137831 39.2731 0.373369L36.8931 2.75337L41.7465 7.6067L44.1265 5.25004ZM21.1665 18.48V23.3334H26.0198L40.3698 8.98337L35.5165 4.13004L21.1665 18.48Z" fill="#2091F9"/>
</svg>
