<svg width="47" height="47" viewBox="0 0 47 47" fill="none" xmlns="http://www.w3.org/2000/svg">
<path d="M23.5 27.1361C27.7282 27.1361 31.1667 23.6976 31.1667 19.4694C31.1667 15.2412 27.7282 11.8027 23.5 11.8027C19.2719 11.8027 15.8334 15.2412 15.8334 19.4694C15.8334 23.6976 19.2719 27.1361 23.5 27.1361ZM23.5 15.6361C25.6141 15.6361 27.3334 17.3553 27.3334 19.4694C27.3334 21.5835 25.6141 23.3027 23.5 23.3027C21.386 23.3027 19.6667 21.5835 19.6667 19.4694C19.6667 17.3553 21.386 15.6361 23.5 15.6361Z" fill="white"/>
<path d="M22.3885 42.1126C22.7129 42.3442 23.1015 42.4688 23.5001 42.4688C23.8987 42.4688 24.2874 42.3442 24.6118 42.1126C25.1945 41.7005 38.889 31.8124 38.8335 19.4691C38.8335 11.0147 31.9545 4.13574 23.5001 4.13574C15.0457 4.13574 8.16679 11.0147 8.16679 19.4595C8.11121 31.8124 21.8058 41.7005 22.3885 42.1126ZM23.5001 7.96908C29.8424 7.96908 35.0001 13.1268 35.0001 19.4787C35.0404 27.9848 26.5898 35.6227 23.5001 38.1278C20.4124 35.6208 11.9599 27.981 12.0001 19.4691C12.0001 13.1268 17.1579 7.96908 23.5001 7.96908Z" fill="white"/>
</svg>
