<svg width="33" height="34" viewBox="0 0 33 34" fill="none" xmlns="http://www.w3.org/2000/svg">
<path d="M30.7384 0.989609H1.27924C0.570784 0.989609 -0.00158691 1.56198 -0.00158691 2.27044V31.7296C-0.00158691 32.438 0.570784 33.0104 1.27924 33.0104H30.7384C31.4468 33.0104 32.0192 32.438 32.0192 31.7296V2.27044C32.0192 1.56198 31.4468 0.989609 30.7384 0.989609ZM9.49658 28.2753H4.74549V12.9934H9.49658V28.2753ZM7.12304 10.904C6.57839 10.904 6.04597 10.7425 5.59311 10.4399C5.14026 10.1374 4.7873 9.70727 4.57887 9.20408C4.37044 8.70089 4.31591 8.1472 4.42216 7.61302C4.52842 7.07884 4.79069 6.58816 5.17582 6.20303C5.56094 5.81791 6.05162 5.55564 6.5858 5.44938C7.11998 5.34313 7.67368 5.39766 8.17686 5.60609C8.68005 5.81452 9.11014 6.16748 9.41273 6.62033C9.71532 7.07319 9.87682 7.60561 9.87682 8.15025C9.87282 9.67124 8.64002 10.904 7.12304 10.904ZM27.2841 28.2753H22.537V20.8425C22.537 19.0693 22.505 16.7919 20.0674 16.7919C17.5978 16.7919 17.2176 18.7211 17.2176 20.7144V28.2753H12.4745V12.9934H17.0295V15.0828H17.0935C17.7259 13.882 19.2749 12.6132 21.5884 12.6132C26.3995 12.6132 27.2841 15.7792 27.2841 19.8939V28.2753Z" fill="white"/>
</svg>
