<svg width="194" height="64" viewBox="0 0 194 64" fill="none" xmlns="http://www.w3.org/2000/svg">
<g clip-path="url(#clip0_5_211)">
<path d="M187.716 38.8053L193.07 42.3562C191.333 44.9024 187.176 49.2712 179.991 49.2712C171.067 49.2712 164.422 42.403 164.422 33.6659C164.422 24.3685 171.138 18.061 179.239 18.061C187.388 18.061 191.379 24.5084 192.671 27.9892L193.376 29.7648L172.383 38.4082C173.979 41.5387 176.469 43.1272 179.991 43.1272C183.513 43.1272 185.955 41.3984 187.716 38.8053ZM171.256 33.1758L185.274 27.382C184.499 25.4433 182.198 24.0652 179.45 24.0652C175.952 24.0652 171.091 27.1488 171.256 33.1758Z" fill="#FF302F"/>
<path d="M154.301 2.15223H161.064V47.846H154.301V2.15186V2.15223Z" fill="#20B15A"/>
<path d="M143.641 19.2755H150.169V47.0281C150.169 58.5447 143.335 63.287 135.257 63.287C127.649 63.287 123.07 58.1945 121.356 54.0597L127.344 51.5832C128.424 54.1295 131.03 57.1433 135.257 57.1433C140.447 57.1433 143.641 53.9427 143.641 47.9626V45.7201H143.406C141.856 47.5887 138.897 49.2706 135.14 49.2706C127.297 49.2706 120.111 42.4726 120.111 33.7126C120.111 24.9053 127.297 18.0376 135.14 18.0376C138.874 18.0376 141.856 19.6962 143.406 21.5183H143.641V19.2758V19.2755ZM144.11 33.7126C144.11 28.1993 140.423 24.1812 135.727 24.1812C130.983 24.1812 126.991 28.1993 126.991 33.7126C126.991 39.1553 130.983 43.1033 135.727 43.1033C140.424 43.127 144.11 39.1553 144.11 33.7126H144.11Z" fill="#3686F7"/>
<path d="M82.9853 33.5959C82.9853 42.5899 75.9408 49.2008 67.2992 49.2008C58.6579 49.2008 51.613 42.5666 51.613 33.5959C51.613 24.5554 58.6579 17.9678 67.2992 17.9678C75.9408 17.9678 82.9853 24.5554 82.9853 33.5959ZM76.1286 33.5959C76.1286 27.9896 72.0424 24.1346 67.2992 24.1346C62.556 24.1346 58.4698 27.9896 58.4698 33.5959C58.4698 39.1556 62.556 43.0571 67.2992 43.0571C72.0428 43.0571 76.1286 39.1556 76.1286 33.5959Z" fill="#FF302F"/>
<path d="M117.246 33.6659C117.246 42.6599 110.201 49.2708 101.56 49.2708C92.9185 49.2708 85.874 42.6595 85.874 33.6659C85.874 24.6254 92.9185 18.061 101.56 18.061C110.201 18.061 117.246 24.6022 117.246 33.6659ZM110.366 33.6659C110.366 28.0597 106.28 24.2047 101.536 24.2047C96.7932 24.2047 92.7071 28.0597 92.7071 33.6659C92.7071 39.2257 96.7932 43.1272 101.536 43.1272C106.303 43.1272 110.366 39.2024 110.366 33.6659Z" fill="#FFBA40"/>
<path d="M25.8293 42.4262C15.9901 42.4262 8.2882 34.5302 8.2882 24.7419C8.2882 14.954 15.9901 7.05803 25.8293 7.05803C31.1365 7.05803 35.0108 9.13703 37.8756 11.8003L42.5958 7.1049C38.6039 3.29715 33.2734 0.399902 25.8293 0.399902C12.3506 0.400277 1.00848 11.3334 1.00848 24.7419C1.00848 38.1512 12.3506 49.0839 25.8293 49.0839C33.1091 49.0839 38.6039 46.7012 42.9012 42.2627C47.3157 37.8707 48.6776 31.7034 48.6776 26.7043C48.6776 25.139 48.4899 23.5273 48.2784 22.3359H25.8293V28.8302H41.8208C41.3511 32.8952 40.0597 35.675 38.1576 37.5669C35.8563 39.8799 32.2168 42.4262 25.8293 42.4262Z" fill="#3686F7"/>
</g>
<defs>
<clipPath id="clip0_5_211">
<rect width="193" height="63" fill="white" transform="translate(0.728088 0.303223)"/>
</clipPath>
</defs>
</svg>
