<svg width="151" height="61" viewBox="0 0 151 61" fill="none" xmlns="http://www.w3.org/2000/svg">
<g clip-path="url(#clip0_5_267)">
<g clip-path="url(#clip1_5_267)">
<path d="M0.573181 0.303223V4.4043H29.742V0.303223H0.573181ZM33.8746 0.303223V4.4043H75.4415C75.4415 4.4043 71.1955 0.303223 65.5722 0.303223H33.8746ZM83.5956 0.303223V4.4043H108.743L107.25 0.303223H83.5956ZM126.772 0.303223L125.28 4.4043H150.199V0.303223H126.772ZM0.573181 8.27883V12.3799H29.742V8.27883H0.573181ZM33.8746 8.28469V12.3799H80.2649C80.2649 12.3799 79.7231 9.22361 78.7781 8.28469H33.8746ZM83.5956 8.28469V12.3799H111.5L110.119 8.28469H83.5956ZM123.787 8.28469L122.405 12.3799H150.199V8.28469H123.787ZM8.95562 16.2544V20.3608H21.5878V16.2544H8.95562ZM42.2571 16.2544V20.3608H54.8893V16.2544H42.2571ZM67.1761 16.2544V20.3608H79.8083C79.8083 20.3608 80.6103 18.192 80.6103 16.2541H67.1761V16.2544ZM91.9781 16.2544V20.3608H114.374L112.881 16.2541H91.9781V16.2544ZM121.036 16.2544L119.537 20.3611H142.044V16.2544H121.036ZM8.95562 24.2359V28.3364H21.5878V24.2359H8.95562ZM42.2571 24.2359V28.3364H74.5224C74.5224 28.3364 77.2216 26.232 78.0815 24.2353H42.2571V24.2359ZM91.9781 24.2359V28.3364H104.61V26.0535L105.412 28.3364H128.552L129.412 26.0535V28.3364H142.044V24.2359H118.331L117.073 27.7098L115.808 24.2359H91.9781ZM8.95562 32.2109V36.312H21.5878V32.2109H8.95562ZM42.2571 32.2109V36.312H78.0815C77.2213 34.3218 74.5224 32.2109 74.5224 32.2109H42.2571ZM91.9781 32.2109V36.312H104.61V32.2109H91.9781ZM106.905 32.2109L108.433 36.312H125.783L127.235 32.2109H106.905ZM129.412 32.2109V36.312H142.044V32.2109H129.412ZM8.95562 40.1865V44.2876H21.5878V40.1865H8.95562ZM42.2571 40.1865V44.2876H54.8893V40.1865H42.2571ZM67.1761 40.1865V44.2876H80.6103C80.6103 42.3521 79.8083 40.1865 79.8083 40.1865H67.1761ZM91.9781 40.1865V44.2876H104.61V40.1865H91.9781ZM109.773 40.1865L111.254 44.2876H122.885L124.378 40.1865H109.773ZM129.412 40.1865V44.2876H142.044V40.1865H129.412ZM0.801474 48.1624V52.2691H29.9703V48.1621H0.801474V48.1624ZM33.8746 48.1624V52.2691H78.7781C79.7231 51.3287 80.2649 48.1621 80.2649 48.1621H33.8746V48.1624ZM83.8239 48.1624V52.2691H104.61V48.1621H83.8239V48.1624ZM112.647 48.1624L114.169 52.2691H120.087L121.516 48.1621H112.647V48.1624ZM129.412 48.1624V52.2691H150.427V48.1621H129.412V48.1624ZM0.801474 56.1436V60.2447H29.9703V56.1436H0.801474ZM33.8746 56.1436V60.2385H65.5722C71.1955 60.2385 75.4415 56.1433 75.4415 56.1433H33.8746V56.1436ZM83.8239 56.1436V60.2447H104.61V56.1436H83.8239ZM115.533 56.1436L116.997 60.2327L117.248 60.2385L118.735 56.1433H115.533V56.1436ZM129.412 56.1436V60.2447H150.427V56.1436H129.412Z" fill="#1F70C1"/>
</g>
</g>
<defs>
<clipPath id="clip0_5_267">
<rect width="149.854" height="60" fill="white" transform="translate(0.573181 0.303223)"/>
</clipPath>
<clipPath id="clip1_5_267">
<rect width="149.854" height="60" fill="white" transform="translate(0.573181 0.303223)"/>
</clipPath>
</defs>
</svg>
