<svg width="34" height="28" viewBox="0 0 34 28" fill="none" xmlns="http://www.w3.org/2000/svg">
<path d="M33.6852 3.68535C32.4604 4.21369 31.1276 4.59394 29.7547 4.74203C31.1801 3.89523 32.2475 2.55741 32.7566 0.979591C31.4191 1.77526 29.9538 2.3332 28.4258 2.62866C27.7872 1.94592 27.0148 1.40202 26.1568 1.03085C25.2987 0.659684 24.3735 0.469196 23.4386 0.471261C19.6561 0.471261 16.6142 3.53725 16.6142 7.29969C16.6142 7.82804 16.6782 8.35638 16.7823 8.86471C11.1186 8.56852 6.06733 5.86276 2.70915 1.72007C2.09725 2.76521 1.7766 3.95523 1.78055 5.16631C1.78055 7.53584 2.98533 9.6252 4.82252 10.854C3.73984 10.8114 2.6825 10.5138 1.73652 9.98544V10.0695C1.73652 13.3876 4.08204 16.1374 7.20807 16.7698C6.62112 16.9223 6.01732 17.0003 5.4109 17.002C4.96661 17.002 4.54634 16.958 4.12207 16.8979C4.98663 19.6037 7.50426 21.569 10.5022 21.633C8.15668 23.4702 5.21878 24.5509 2.02871 24.5509C1.45634 24.5509 0.927994 24.5309 0.379639 24.4668C3.4056 26.4081 6.99593 27.5288 10.8624 27.5288C23.4146 27.5288 30.283 17.1301 30.283 8.10421C30.283 7.80802 30.283 7.51183 30.263 7.21564C31.5919 6.24301 32.7566 5.03822 33.6852 3.68535Z" fill="white"/>
</svg>
